HIERARCHY
ROOT mixamorig:Hips
{
	OFFSET 0.000000 201.639420 0.000000
	CHANNELS 6 Xposition Yposition Zposition Xrotation Yrotation Zrotation
	JOINT mixamorig:Spine
	{
		OFFSET 0.006200 19.524994 -2.481800
		CHANNELS 3 Xrotation Yrotation Zrotation
		JOINT mixamorig:Spine1
		{
			OFFSET -0.000900 22.835007 -2.825400
			CHANNELS 3 Xrotation Yrotation Zrotation
			JOINT mixamorig:Spine2
			{
				OFFSET -0.020600 26.552490 -3.193300
				CHANNELS 3 Xrotation Yrotation Zrotation
				JOINT mixamorig:Neck
				{
					OFFSET -0.060000 30.701813 1.352200
					CHANNELS 3 Xrotation Yrotation Zrotation
					JOINT mixamorig:Head
					{
						OFFSET -0.087200 22.547607 3.670900
						CHANNELS 3 Xrotation Yrotation Zrotation
						JOINT mixamorig:HeadTop_End
						{
							OFFSET -0.830600 40.355194 7.893500
							CHANNELS 3 Xrotation Yrotation Zrotation
							End Site
							{
								OFFSET 0.000000 30.592346 0.000000
							}
						}
						JOINT mixamorig:RightEye
						{
							OFFSET -6.302100 18.118591 16.197100
							CHANNELS 3 Xrotation Yrotation Zrotation
							End Site
							{
								OFFSET 0.000000 30.592346 0.000000
							}
						}
						JOINT mixamorig:LeftEye
						{
							OFFSET 6.741500 18.382690 16.401899
							CHANNELS 3 Xrotation Yrotation Zrotation
							End Site
							{
								OFFSET 0.000000 30.592346 0.000000
							}
						}
					}
				}
				JOINT mixamorig:LeftShoulder
				{
					OFFSET 11.924900 18.230499 1.425400
					CHANNELS 3 Xrotation Yrotation Zrotation
					JOINT mixamorig:LeftArm
					{
						OFFSET 25.435989 -0.697632 -5.229300
						CHANNELS 3 Xrotation Yrotation Zrotation
						JOINT mixamorig:LeftForeArm
						{
							OFFSET 54.684776 0.000000 0.000000
							CHANNELS 3 Xrotation Yrotation Zrotation
							JOINT mixamorig:LeftHand
							{
								OFFSET 55.098175 0.000000 0.000000
								CHANNELS 3 Xrotation Yrotation Zrotation
								JOINT mixamorig:LeftHandMiddle1
								{
									OFFSET 23.369751 0.000000 0.000000
									CHANNELS 3 Xrotation Yrotation Zrotation
									JOINT mixamorig:LeftHandMiddle2
									{
										OFFSET 6.378677 0.000000 0.000000
										CHANNELS 3 Xrotation Yrotation Zrotation
										JOINT mixamorig:LeftHandMiddle3
										{
											OFFSET 6.148331 0.000000 0.000000
											CHANNELS 3 Xrotation Yrotation Zrotation
											JOINT mixamorig:LeftHandMiddle4
											{
												OFFSET 6.582504 0.000000 0.000000
												CHANNELS 3 Xrotation Yrotation Zrotation
												End Site
												{
													OFFSET -1.168900 6.395691 1.028606
												}
											}
										}
									}
								}
								JOINT mixamorig:LeftHandThumb1
								{
									OFFSET 7.235672 -3.848206 5.434273
									CHANNELS 3 Xrotation Yrotation Zrotation
									JOINT mixamorig:LeftHandThumb2
									{
										OFFSET 6.568451 -3.792297 3.792300
										CHANNELS 3 Xrotation Yrotation Zrotation
										JOINT mixamorig:LeftHandThumb3
										{
											OFFSET 6.063080 -3.500519 3.500518
											CHANNELS 3 Xrotation Yrotation Zrotation
											JOINT mixamorig:LeftHandThumb4
											{
												OFFSET 4.793182 -2.767334 2.767349
												CHANNELS 3 Xrotation Yrotation Zrotation
												End Site
												{
													OFFSET 0.101639 6.054260 1.275483
												}
											}
										}
									}
								}
								JOINT mixamorig:LeftHandIndex1
								{
									OFFSET 23.101074 -0.309540 4.992809
									CHANNELS 3 Xrotation Yrotation Zrotation
									JOINT mixamorig:LeftHandIndex2
									{
										OFFSET 6.226883 0.000000 0.000000
										CHANNELS 3 Xrotation Yrotation Zrotation
										JOINT mixamorig:LeftHandIndex3
										{
											OFFSET 6.094330 0.000000 0.000000
											CHANNELS 3 Xrotation Yrotation Zrotation
											JOINT mixamorig:LeftHandIndex4
											{
												OFFSET 5.482605 0.000000 0.000000
												CHANNELS 3 Xrotation Yrotation Zrotation
												End Site
												{
													OFFSET -1.427902 5.233032 0.797164
												}
											}
										}
									}
								}
								JOINT mixamorig:LeftHandRing1
								{
									OFFSET 22.299240 0.021149 -3.964172
									CHANNELS 3 Xrotation Yrotation Zrotation
									JOINT mixamorig:LeftHandRing2
									{
										OFFSET 6.321869 0.000000 0.000000
										CHANNELS 3 Xrotation Yrotation Zrotation
										JOINT mixamorig:LeftHandRing3
										{
											OFFSET 5.899796 0.000000 0.000000
											CHANNELS 3 Xrotation Yrotation Zrotation
											JOINT mixamorig:LeftHandRing4
											{
												OFFSET 6.517899 0.000000 0.000000
												CHANNELS 3 Xrotation Yrotation Zrotation
												End Site
												{
													OFFSET -1.637299 6.232208 0.980890
												}
											}
										}
									}
								}
								JOINT mixamorig:LeftHandPinky1
								{
									OFFSET 20.463791 -0.302338 -8.562233
									CHANNELS 3 Xrotation Yrotation Zrotation
									JOINT mixamorig:LeftHandPinky2
									{
										OFFSET 6.908646 0.000000 0.000000
										CHANNELS 3 Xrotation Yrotation Zrotation
										JOINT mixamorig:LeftHandPinky3
										{
											OFFSET 4.622849 0.000000 0.000000
											CHANNELS 3 Xrotation Yrotation Zrotation
											JOINT mixamorig:LeftHandPinky4
											{
												OFFSET 5.216080 0.000000 0.000000
												CHANNELS 3 Xrotation Yrotation Zrotation
												End Site
												{
													OFFSET -0.606308 5.116241 0.814926
												}
											}
										}
									}
								}
							}
						}
					}
				}
				JOINT mixamorig:RightShoulder
				{
					OFFSET -12.001300 18.284088 1.348900
					CHANNELS 3 Xrotation Yrotation Zrotation
					JOINT mixamorig:RightArm
					{
						OFFSET -25.308500 -0.751312 -5.164599
						CHANNELS 3 Xrotation Yrotation Zrotation
						JOINT mixamorig:RightForeArm
						{
							OFFSET -54.684429 0.000000 0.000000
							CHANNELS 3 Xrotation Yrotation Zrotation
							JOINT mixamorig:RightHand
							{
								OFFSET -55.150291 0.000000 0.000000
								CHANNELS 3 Xrotation Yrotation Zrotation
								JOINT mixamorig:RightHandMiddle1
								{
									OFFSET -23.317566 0.000000 0.000000
									CHANNELS 3 Xrotation Yrotation Zrotation
									JOINT mixamorig:RightHandMiddle2
									{
										OFFSET -6.378403 0.000000 0.000000
										CHANNELS 3 Xrotation Yrotation Zrotation
										JOINT mixamorig:RightHandMiddle3
										{
											OFFSET -6.148193 0.000000 0.000000
											CHANNELS 3 Xrotation Yrotation Zrotation
											JOINT mixamorig:RightHandMiddle4
											{
												OFFSET -6.583389 0.000000 0.000000
												CHANNELS 3 Xrotation Yrotation Zrotation
												End Site
												{
													OFFSET 1.171692 6.395905 1.029786
												}
											}
										}
									}
								}
								JOINT mixamorig:RightHandThumb1
								{
									OFFSET -7.190521 -3.860474 5.435846
									CHANNELS 3 Xrotation Yrotation Zrotation
									JOINT mixamorig:RightHandThumb2
									{
										OFFSET -6.567429 -3.791718 3.791708
										CHANNELS 3 Xrotation Yrotation Zrotation
										JOINT mixamorig:RightHandThumb3
										{
											OFFSET -6.062469 -3.500153 3.500166
											CHANNELS 3 Xrotation Yrotation Zrotation
											JOINT mixamorig:RightHandThumb4
											{
												OFFSET -4.792618 -2.767029 2.767022
												CHANNELS 3 Xrotation Yrotation Zrotation
												End Site
												{
													OFFSET -0.100327 6.053253 1.276754
												}
											}
										}
									}
								}
								JOINT mixamorig:RightHandIndex1
								{
									OFFSET -23.048981 -0.310791 4.992554
									CHANNELS 3 Xrotation Yrotation Zrotation
									JOINT mixamorig:RightHandIndex2
									{
										OFFSET -6.227539 0.000000 0.000000
										CHANNELS 3 Xrotation Yrotation Zrotation
										JOINT mixamorig:RightHandIndex3
										{
											OFFSET -6.095047 0.000000 0.000000
											CHANNELS 3 Xrotation Yrotation Zrotation
											JOINT mixamorig:RightHandIndex4
											{
												OFFSET -5.484772 0.000000 0.000000
												CHANNELS 3 Xrotation Yrotation Zrotation
												End Site
												{
													OFFSET 1.420593 5.237305 0.797056
												}
											}
										}
									}
								}
								JOINT mixamorig:RightHandRing1
								{
									OFFSET -22.246323 0.020569 -3.963762
									CHANNELS 3 Xrotation Yrotation Zrotation
									JOINT mixamorig:RightHandRing2
									{
										OFFSET -6.322128 0.000000 0.000000
										CHANNELS 3 Xrotation Yrotation Zrotation
										JOINT mixamorig:RightHandRing3
										{
											OFFSET -5.900024 0.000000 0.000000
											CHANNELS 3 Xrotation Yrotation Zrotation
											JOINT mixamorig:RightHandRing4
											{
												OFFSET -6.518356 0.000000 0.000000
												CHANNELS 3 Xrotation Yrotation Zrotation
												End Site
												{
													OFFSET 1.636398 6.232697 0.982186
												}
											}
										}
									}
								}
								JOINT mixamorig:RightHandPinky1
								{
									OFFSET -20.411011 -0.303314 -8.561701
									CHANNELS 3 Xrotation Yrotation Zrotation
									JOINT mixamorig:RightHandPinky2
									{
										OFFSET -6.907349 0.000000 0.000000
										CHANNELS 3 Xrotation Yrotation Zrotation
										JOINT mixamorig:RightHandPinky3
										{
											OFFSET -4.623840 0.000000 0.000000
											CHANNELS 3 Xrotation Yrotation Zrotation
											JOINT mixamorig:RightHandPinky4
											{
												OFFSET -5.218353 0.000000 0.000000
												CHANNELS 3 Xrotation Yrotation Zrotation
												End Site
												{
													OFFSET 0.602097 5.118835 0.816273
												}
											}
										}
									}
								}
							}
						}
					}
				}
			}
		}
	}
	JOINT mixamorig:LeftUpLeg
	{
		OFFSET 18.168400 -13.561905 -0.039000
		CHANNELS 3 Xrotation Yrotation Zrotation
		JOINT mixamorig:LeftLeg
		{
			OFFSET 0.577358 -80.825211 -3.695000
			CHANNELS 3 Xrotation Yrotation Zrotation
			JOINT mixamorig:LeftFoot
			{
				OFFSET -0.577356 -83.370262 -6.520700
				CHANNELS 3 Xrotation Yrotation Zrotation
				JOINT mixamorig:LeftToeBase
				{
					OFFSET 0.750401 -20.798306 25.135401
					CHANNELS 3 Xrotation Yrotation Zrotation
					JOINT mixamorig:LeftToe_End
					{
						OFFSET -0.000500 0.001200 19.917799
						CHANNELS 3 Xrotation Yrotation Zrotation
						End Site
						{
							OFFSET 0.000000 19.917805 0.000000
						}
					}
				}
			}
		}
	}
	JOINT mixamorig:RightUpLeg
	{
		OFFSET -18.162500 -13.585098 -0.041000
		CHANNELS 3 Xrotation Yrotation Zrotation
		JOINT mixamorig:RightLeg
		{
			OFFSET -0.595024 -80.945297 -3.631900
			CHANNELS 3 Xrotation Yrotation Zrotation
			JOINT mixamorig:RightFoot
			{
				OFFSET 0.595024 -83.218193 -6.561200
				CHANNELS 3 Xrotation Yrotation Zrotation
				JOINT mixamorig:RightToeBase
				{
					OFFSET -0.753601 -20.807106 25.115000
					CHANNELS 3 Xrotation Yrotation Zrotation
					JOINT mixamorig:RightToe_End
					{
						OFFSET 0.000299 0.001700 19.918200
						CHANNELS 3 Xrotation Yrotation Zrotation
						End Site
						{
							OFFSET 0.000000 19.918203 0.000000
						}
					}
				}
			}
		}
	}
}
MOTION
Frames: 4
Frame Time: 0.033333
-67.144600 198.849030 -65.699829 4.673868 0.294216 -1.365163 1.681648 1.156892 -5.800035 2.523937 3.008519 -1.270443 2.572817 2.985727 -1.236379 -0.196243 1.476450 2.128643 -4.039152 8.855797 5.240664 0.000000 0.000001 -0.000000 0.000000 0.000001 -0.000000 0.000000 0.000001 -0.000000 1.450625 -4.150248 -11.402728 1.043897 25.432310 -41.682821 0.000036 -68.197759 0.000041 0.154103 -28.936199 0.406652 0.000000 -0.001925 0.015973 -0.000001 0.001931 -0.015985 0.000006 -0.000001 0.000001 -0.000001 0.000001 0.000002 -1.540044 3.690184 6.142336 3.946752 7.971412 0.752860 -0.575595 1.586248 2.542372 0.000002 0.000001 0.000003 0.000004 -0.000003 -0.000011 -0.000004 0.000011 -0.000043 0.000000 -0.000007 -0.000002 0.000000 0.000003 -0.000003 -0.000005 0.000005 -0.000006 0.000001 -0.000008 -0.000007 -0.000001 0.000012 0.000013 -0.000002 0.000001 0.000002 -0.018088 4.054250 0.511057 -0.018085 -4.054241 -0.511061 0.000000 -0.000004 -0.000008 0.000002 -0.000000 0.000002 0.741855 -2.686980 10.642686 -18.371068 -15.792767 40.221645 -0.000004 12.360233 0.000010 3.864164 6.039702 8.325062 0.000002 -0.000000 -0.000009 -0.000000 -0.000001 0.000135 0.000004 0.000008 0.000006 0.000003 0.000002 -0.000002 -1.849249 -3.581797 -6.586132 4.645037 -8.656800 -0.231323 -1.269825 0.126062 -2.098684 0.000000 0.000000 -0.000002 0.000001 -0.000001 -0.000001 0.000001 -0.000000 0.000012 -0.000001 -0.000001 0.000004 0.000001 -0.000001 0.000001 0.000002 -0.000001 -0.000006 0.000003 -0.000003 0.000020 0.000002 0.000000 0.000008 -0.000000 0.000001 0.000002 0.000002 -0.000001 -0.000001 -0.000002 -0.000003 0.000164 -0.000000 -0.000009 0.000007 -0.000001 0.000001 0.000000 -43.910695 -0.228015 9.729706 50.678535 8.712343 0.985966 13.644118 13.821574 -2.904165 -0.227257 -0.000012 0.000003 0.000001 0.000000 0.000000 -4.509575 -11.645780 -7.482950 22.666367 -8.234726 -0.577176 -6.507795 -2.799666 13.684833 -8.603272 0.000002 -0.000004 -0.000000 -0.000001 0.000000 
-65.664627 200.243439 -65.628830 5.295419 -1.003211 -0.997484 1.293491 1.874110 -6.200520 1.859113 3.905736 -1.679205 1.935968 3.892515 -1.642120 -0.301252 1.300211 2.400286 -3.945874 8.202715 5.748188 -0.000000 -0.000002 0.000000 -0.000000 -0.000002 0.000000 -0.000000 -0.000002 0.000000 1.478846 -4.302386 -11.715304 15.167909 28.613667 -50.189087 0.000022 -65.035914 0.000001 0.243089 -30.809610 0.306135 -0.000001 -0.001931 0.015971 0.000001 0.001930 -0.015980 0.000002 0.000004 0.000004 -0.000000 0.000004 -0.000002 -1.540048 3.690183 6.142337 3.946756 7.971412 0.752860 -0.575595 1.586241 2.542369 0.000000 0.000004 -0.000002 0.000003 -0.000005 -0.000013 -0.000005 0.000009 -0.000049 0.000004 -0.000004 0.000001 0.000004 -0.000003 -0.000003 -0.000007 0.000003 -0.000007 -0.000001 -0.000009 -0.000005 0.000002 0.000014 0.000009 -0.000003 0.000001 -0.000001 -0.018084 4.054243 0.511059 -0.018088 -4.054244 -0.511064 -0.000004 -0.000001 -0.000005 -0.000005 -0.000000 0.000001 0.705869 -2.855032 10.409599 -19.679052 -14.624209 38.221773 0.000005 13.422286 -0.000009 4.711638 -1.330138 15.369884 0.000002 0.000001 -0.000019 0.000003 -0.000002 0.000147 0.000006 0.000009 0.000002 0.000003 -0.000000 0.000002 -1.849251 -3.581786 -6.586132 4.645035 -8.656801 -0.231322 -1.269825 0.126062 -2.098684 0.000000 0.000000 -0.000000 0.000003 -0.000001 -0.000016 0.000002 0.000001 0.000010 -0.000000 -0.000002 0.000005 0.000000 -0.000001 0.000003 0.000001 -0.000001 -0.000009 0.000001 0.000000 0.000014 0.000000 0.000000 0.000007 -0.000001 -0.000002 0.000004 0.000002 -0.000001 -0.000002 -0.000000 -0.000002 0.000164 -0.000001 -0.000008 0.000003 0.000000 -0.000001 -0.000002 -39.646311 -0.524463 13.135738 50.747288 8.597088 1.166890 13.674279 18.337072 0.664305 -0.812601 -0.000002 -0.000003 -0.000002 -0.000001 -0.000001 -4.498455 -11.311598 -9.093339 20.118032 -5.211021 -0.469572 -4.137084 -1.258717 15.073801 -9.369286 0.000005 0.000001 0.000001 -0.000000 0.000000 
-63.813271 200.850204 -65.327744 6.249831 -1.307379 -0.996264 0.873959 2.393606 -6.110045 1.131500 4.587305 -1.867719 1.226927 4.585798 -1.832804 -0.409348 1.094393 2.492291 -3.751945 7.249824 5.965223 -0.000001 0.000001 -0.000000 -0.000001 0.000001 -0.000000 -0.000001 0.000001 -0.000000 1.434344 -4.068447 -11.210686 22.311918 31.302760 -56.878612 0.000013 -59.901340 0.000005 1.690587 -28.818477 -2.909760 0.000000 -0.001932 0.015974 -0.000001 0.001934 -0.015983 0.000006 -0.000002 0.000002 -0.000002 -0.000000 0.000001 -1.540050 3.690180 6.142336 3.946755 7.971410 0.752860 -0.575594 1.586243 2.542366 0.000002 0.000003 -0.000002 0.000003 -0.000010 -0.000012 -0.000004 0.000012 -0.000046 0.000001 -0.000002 -0.000003 -0.000000 0.000000 0.000003 -0.000002 0.000004 -0.000004 0.000004 -0.000011 -0.000006 -0.000002 0.000012 0.000009 0.000002 -0.000003 0.000003 -0.018086 4.054244 0.511060 -0.018089 -4.054244 -0.511062 -0.000004 -0.000008 -0.000006 -0.000002 -0.000004 0.000000 0.666105 -3.072659 10.203335 -20.155960 -14.732658 36.655429 0.000004 14.436747 -0.000013 5.377351 -5.907423 18.735289 0.000002 0.000001 0.000008 0.000000 -0.000002 0.000144 0.000003 0.000010 0.000001 0.000000 -0.000000 0.000001 -1.849249 -3.581794 -6.586132 4.645035 -8.656802 -0.231319 -1.269824 0.126061 -2.098680 -0.000001 -0.000000 0.000004 0.000001 -0.000001 -0.000007 0.000001 0.000001 0.000015 -0.000000 -0.000002 0.000008 -0.000000 -0.000000 -0.000001 0.000001 0.000001 0.000004 -0.000000 -0.000002 0.000017 0.000001 -0.000000 0.000005 -0.000001 -0.000000 0.000001 -0.000000 -0.000001 0.000009 -0.000002 -0.000002 0.000154 0.000001 -0.000007 0.000003 0.000000 0.000000 0.000002 -34.705772 -0.379151 16.838870 46.564046 8.516444 1.350039 13.016262 22.786302 3.303976 -0.037321 0.000015 0.000005 0.000001 0.000003 -0.000000 -4.381893 -10.948737 -10.144181 17.726245 -1.979722 -0.190648 -2.636989 -0.925592 16.394578 -10.055627 -0.000002 0.000005 0.000000 0.000001 -0.000000 
-61.367657 200.335236 -65.042717 7.279410 -0.151262 -1.419649 0.471955 2.630922 -5.450519 0.433106 4.894002 -1.852392 0.526511 4.903196 -1.823398 -0.531109 0.848416 2.488626 -3.503783 6.072069 5.965357 0.000001 -0.000001 0.000000 0.000001 -0.000001 0.000000 0.000001 -0.000001 0.000000 1.349200 -3.634492 -10.252998 25.163197 34.090465 -60.430768 0.000005 -54.235715 0.000014 3.970562 -23.519739 -5.112426 -0.000000 -0.001926 0.015975 -0.000001 0.001930 -0.015982 0.000003 0.000001 -0.000004 0.000002 0.000004 -0.000001 -1.540050 3.690184 6.142340 3.946753 7.971409 0.752863 -0.575597 1.586245 2.542365 0.000003 0.000001 0.000001 0.000005 -0.000004 -0.000010 -0.000003 0.000010 -0.000042 0.000002 -0.000005 0.000002 0.000001 0.000001 -0.000006 -0.000004 0.000007 -0.000007 0.000004 -0.000010 -0.000006 -0.000001 0.000012 0.000012 -0.000001 0.000000 -0.000002 -0.018084 4.054247 0.511062 -0.018087 -4.054246 -0.511058 -0.000003 -0.000010 -0.000008 -0.000001 -0.000000 0.000001 0.638831 -3.263325 10.137389 -19.993174 -15.604851 34.974773 -0.000004 15.254596 0.000003 3.878239 -9.215371 18.492768 0.000000 0.000002 -0.000018 0.000000 -0.000002 0.000142 0.000005 0.000009 0.000004 0.000001 0.000000 0.000001 -1.849248 -3.581795 -6.586136 4.645035 -8.656802 -0.231318 -1.269824 0.126063 -2.098682 -0.000002 -0.000000 0.000001 0.000001 0.000000 -0.000015 0.000002 0.000001 0.000009 -0.000002 -0.000002 0.000005 -0.000000 0.000000 0.000001 -0.000001 -0.000001 -0.000008 -0.000002 -0.000002 0.000019 0.000001 0.000001 0.000005 0.000000 -0.000000 -0.000002 0.000002 -0.000000 -0.000015 -0.000002 0.000000 0.000160 0.000000 -0.000008 0.000005 0.000000 0.000000 -0.000001 -30.071455 0.487062 20.592641 39.277167 8.479466 1.437349 13.538585 25.340579 5.785537 -0.000003 0.000009 0.000000 -0.000002 -0.000001 -0.000001 -3.954201 -10.525712 -10.524196 15.917078 -0.762938 -0.039606 -2.519790 -0.812215 17.557020 -10.034610 -0.000005 0.000001 0.000001 -0.000002 0.000001 
